<svg width="24" height="25" viewBox="0 0 24 25" fill="none" xmlns="http://www.w3.org/2000/svg">
<path d="M21.8182 12.48C21.8182 11.1391 21.5642 9.8113 21.0708 8.57245C20.5774 7.33361 19.8542 6.20797 18.9425 5.2598C18.0308 4.31163 16.9485 3.5595 15.7573 3.04635C14.5661 2.5332 13.2893 2.26909 12 2.26909C10.7107 2.26909 9.43394 2.5332 8.24274 3.04635C7.05155 3.5595 5.9692 4.31163 5.0575 5.2598C4.14579 6.20797 3.42259 7.33361 2.92918 8.57245C2.43577 9.8113 2.18182 11.1391 2.18182 12.48C2.18182 15.1881 3.21623 17.7853 5.0575 19.7002C6.89876 21.6151 9.39605 22.6909 12 22.6909C14.6039 22.6909 17.1012 21.6151 18.9425 19.7002C20.7838 17.7853 21.8182 15.1881 21.8182 12.48ZM12 -5.27836e-07C18.6273 -2.36326e-07 24 5.58764 24 12.48C24 19.3724 18.6273 24.96 12 24.96C5.37273 24.96 -1.55676e-06 19.3724 -1.25736e-06 12.48C-9.57973e-07 5.58764 5.37273 -8.19345e-07 12 -5.27836e-07ZM18.4516 12.48L12.5455 18.6224L11.0029 17.0182L14.2756 13.6145L6 13.6145L6 11.3455L14.2756 11.3455L11.0029 7.94182L12.5455 6.33757L18.4516 12.48Z" fill="#D62424"/>
</svg>
