<svg width="124" height="124" viewBox="0 0 124 124" fill="none" xmlns="http://www.w3.org/2000/svg">
<path d="M112.066 62C112.066 55.3384 110.762 48.742 108.229 42.5875C105.696 36.433 101.982 30.8409 97.3015 26.1304C92.6205 21.4199 87.0633 17.6834 80.9472 15.1341C74.8312 12.5848 68.276 11.2727 61.6561 11.2727C55.0361 11.2727 48.481 12.5848 42.3649 15.1341C36.2489 17.6834 30.6917 21.4199 26.0107 26.1304C21.3296 30.8409 17.6164 36.433 15.0831 42.5875C12.5497 48.742 11.2458 55.3384 11.2458 62C11.2458 75.4537 16.5569 88.3564 26.0107 97.8696C35.4644 107.383 48.2864 112.727 61.6561 112.727C75.0257 112.727 87.8477 107.383 97.3015 97.8696C106.755 88.3564 112.066 75.4537 112.066 62ZM61.6561 -2.71011e-06C95.683 -1.21339e-06 123.269 27.7591 123.269 62C123.269 96.2409 95.683 124 61.6561 124C27.6292 124 0.0435673 96.2409 0.0435688 62C0.0435703 27.7591 27.6292 -4.20682e-06 61.6561 -2.71011e-06ZM94.7812 62L64.4566 92.5153L56.5366 84.5455L73.34 67.6364L30.8498 67.6364L30.8498 56.3636L73.34 56.3636L56.5366 39.4545L64.4566 31.4847L94.7812 62Z" fill="white"/>
</svg>
