<svg width="124" height="124" viewBox="0 0 124 124" fill="none" xmlns="http://www.w3.org/2000/svg">
<path d="M62.2873 0C45.9467 0 30.2753 6.53213 18.7207 18.1594C7.16611 29.7866 0.674805 45.5566 0.674805 62C0.674805 78.4434 7.16611 94.2134 18.7207 105.841C30.2753 117.468 45.9467 124 62.2873 124C78.628 124 94.2993 117.468 105.854 105.841C117.409 94.2134 123.9 78.4434 123.9 62C123.9 45.5566 117.409 29.7866 105.854 18.1594C94.2993 6.53213 78.628 0 62.2873 0ZM97.4138 84.5931L84.7319 97.3548L62.2873 74.7617L39.8354 97.3474L27.1535 84.5857L49.6127 62L27.1608 39.4069L39.8428 26.6526L62.2873 49.2383L84.7392 26.6452L97.4211 39.4069L74.9619 62L97.4138 84.5931Z" fill="white"/>
</svg>
