<svg width="112" height="124" viewBox="0 0 112 124" fill="none" xmlns="http://www.w3.org/2000/svg">
<path d="M55.9698 0C41.2632 0 27.159 5.87891 16.7598 16.3434C6.36072 26.808 0.518555 41.0009 0.518555 55.8V124L19.0023 105.4L37.4861 124L55.9698 105.4L74.4536 124L92.9373 105.4L111.421 124V55.8C111.421 41.0009 105.579 26.808 95.1797 16.3434C84.7806 5.87891 70.6764 0 55.9698 0ZM37.4861 37.2C40.7542 37.2 43.8885 38.5064 46.1994 40.8319C48.5103 43.1573 49.8086 46.3113 49.8086 49.6C49.8086 52.8887 48.5103 56.0427 46.1994 58.3681C43.8885 60.6936 40.7542 62 37.4861 62C34.2179 62 31.0836 60.6936 28.7727 58.3681C26.4618 56.0427 25.1636 52.8887 25.1636 49.6C25.1636 46.3113 26.4618 43.1573 28.7727 40.8319C31.0836 38.5064 34.2179 37.2 37.4861 37.2ZM74.4536 37.2C77.7217 37.2 80.856 38.5064 83.1669 40.8319C85.4778 43.1573 86.776 46.3113 86.776 49.6C86.776 52.8887 85.4778 56.0427 83.1669 58.3681C80.856 60.6936 77.7217 62 74.4536 62C71.1854 62 68.0511 60.6936 65.7402 58.3681C63.4293 56.0427 62.1311 52.8887 62.1311 49.6C62.1311 46.3113 63.4293 43.1573 65.7402 40.8319C68.0511 38.5064 71.1854 37.2 74.4536 37.2Z" fill="white"/>
</svg>
