<svg width="149" height="26" viewBox="0 0 149 26" fill="none" xmlns="http://www.w3.org/2000/svg">
<path d="M8.01601 2.66401C10.3627 2.66401 12.4213 3.12268 14.192 4.04001C15.984 4.95734 17.36 6.26934 18.32 7.97601C19.3013 9.66134 19.792 11.624 19.792 13.864C19.792 16.104 19.3013 18.0667 18.32 19.752C17.36 21.416 15.984 22.7067 14.192 23.624C12.4213 24.5413 10.3627 25 8.01601 25H0.208008V2.66401H8.01601ZM7.85601 21.192C10.2027 21.192 12.016 20.552 13.296 19.272C14.576 17.992 15.216 16.1893 15.216 13.864C15.216 11.5387 14.576 9.72534 13.296 8.42401C12.016 7.10134 10.2027 6.44001 7.85601 6.44001H4.68801V21.192H7.85601Z" fill="white"/>
<path d="M27.6255 6.28001V11.88H35.1455V15.432H27.6255V21.352H36.1055V25H23.1455V2.63201H36.1055V6.28001H27.6255Z" fill="white"/>
<path d="M44.6568 6.28001V11.88H52.1768V15.432H44.6568V21.352H53.1368V25H40.1768V2.63201H53.1368V6.28001H44.6568Z" fill="white"/>
<path d="M73.496 9.57601C73.496 10.7707 73.208 11.8907 72.632 12.936C72.0773 13.9813 71.192 14.824 69.976 15.464C68.7813 16.104 67.2667 16.424 65.432 16.424H61.688V25H57.208V2.66401H65.432C67.16 2.66401 68.632 2.96268 69.848 3.56001C71.064 4.15734 71.9707 4.97868 72.568 6.02401C73.1867 7.06934 73.496 8.25334 73.496 9.57601ZM65.24 12.808C66.4773 12.808 67.3947 12.5307 67.992 11.976C68.5893 11.4 68.888 10.6 68.888 9.57601C68.888 7.40001 67.672 6.31201 65.24 6.31201H61.688V12.808H65.24Z" fill="white"/>
<path d="M75.8448 16.168C75.8448 14.376 76.2074 12.808 76.9328 11.464C77.6581 10.0987 78.6501 9.04268 79.9088 8.29601C81.1888 7.54934 82.6181 7.17601 84.1968 7.17601C85.5621 7.17601 86.8314 7.49601 88.0048 8.13601C89.1781 8.75468 90.0741 9.57601 90.6928 10.6V1.32001H93.6368V25H90.6928V21.704C90.1168 22.7493 89.2634 23.6133 88.1328 24.296C87.0021 24.9573 85.6794 25.288 84.1648 25.288C82.6074 25.288 81.1888 24.904 79.9088 24.136C78.6501 23.368 77.6581 22.2907 76.9328 20.904C76.2074 19.5173 75.8448 17.9387 75.8448 16.168ZM90.6928 16.2C90.6928 14.8773 90.4261 13.7253 89.8928 12.744C89.3594 11.7627 88.6341 11.016 87.7168 10.504C86.8208 9.97068 85.8288 9.70401 84.7408 9.70401C83.6528 9.70401 82.6608 9.96001 81.7648 10.472C80.8688 10.984 80.1541 11.7307 79.6208 12.712C79.0874 13.6933 78.8208 14.8453 78.8208 16.168C78.8208 17.512 79.0874 18.6853 79.6208 19.688C80.1541 20.6693 80.8688 21.4267 81.7648 21.96C82.6608 22.472 83.6528 22.728 84.7408 22.728C85.8288 22.728 86.8208 22.472 87.7168 21.96C88.6341 21.4267 89.3594 20.6693 89.8928 19.688C90.4261 18.6853 90.6928 17.5227 90.6928 16.2Z" fill="white"/>
<path d="M100.062 4.61601C99.5071 4.61601 99.0378 4.42401 98.6538 4.04001C98.2698 3.65601 98.0778 3.18668 98.0778 2.63201C98.0778 2.07734 98.2698 1.60801 98.6538 1.22401C99.0378 0.84001 99.5071 0.64801 100.062 0.64801C100.595 0.64801 101.043 0.84001 101.406 1.22401C101.79 1.60801 101.982 2.07734 101.982 2.63201C101.982 3.18668 101.79 3.65601 101.406 4.04001C101.043 4.42401 100.595 4.61601 100.062 4.61601ZM101.47 7.46401V25H98.5578V7.46401H101.47Z" fill="white"/>
<path d="M112.961 22.312L118.401 7.46401H121.505L114.625 25H111.233L104.353 7.46401H107.489L112.961 22.312Z" fill="white"/>
<path d="M140.37 15.56C140.37 16.1147 140.338 16.7013 140.274 17.32H126.258C126.365 19.048 126.952 20.4027 128.018 21.384C129.106 22.344 130.418 22.824 131.954 22.824C133.213 22.824 134.258 22.536 135.09 21.96C135.944 21.3627 136.541 20.5733 136.882 19.592H140.018C139.549 21.2773 138.61 22.6533 137.202 23.72C135.794 24.7653 134.045 25.288 131.954 25.288C130.29 25.288 128.797 24.9147 127.474 24.168C126.173 23.4213 125.149 22.3653 124.402 21C123.656 19.6133 123.282 18.0133 123.282 16.2C123.282 14.3867 123.645 12.7973 124.37 11.432C125.096 10.0667 126.109 9.02134 127.41 8.29601C128.733 7.54934 130.248 7.17601 131.954 7.17601C133.618 7.17601 135.09 7.53868 136.37 8.26401C137.65 8.98934 138.632 9.99201 139.314 11.272C140.018 12.5307 140.37 13.96 140.37 15.56ZM137.362 14.952C137.362 13.8427 137.117 12.8933 136.626 12.104C136.136 11.2933 135.464 10.6853 134.61 10.28C133.778 9.85334 132.85 9.64001 131.826 9.64001C130.354 9.64001 129.096 10.1093 128.05 11.048C127.026 11.9867 126.44 13.288 126.29 14.952H137.362Z" fill="white"/>
<path d="M145.942 25.224C145.131 25.224 144.459 24.9787 143.926 24.488C143.414 23.976 143.158 23.3467 143.158 22.6C143.158 21.8533 143.414 21.2347 143.926 20.744C144.459 20.232 145.131 19.976 145.942 19.976C146.731 19.976 147.382 20.232 147.894 20.744C148.406 21.2347 148.662 21.8533 148.662 22.6C148.662 23.3467 148.406 23.976 147.894 24.488C147.382 24.9787 146.731 25.224 145.942 25.224Z" fill="white"/>
</svg>
