<svg width="149" height="25" viewBox="0 0 149 25" fill="none" xmlns="http://www.w3.org/2000/svg">
<path d="M7.808 2.016C10.1547 2.016 12.2133 2.47467 13.984 3.392C15.776 4.30933 17.152 5.62133 18.112 7.328C19.0933 9.01333 19.584 10.976 19.584 13.216C19.584 15.456 19.0933 17.4187 18.112 19.104C17.152 20.768 15.776 22.0587 13.984 22.976C12.2133 23.8933 10.1547 24.352 7.808 24.352H0V2.016H7.808ZM7.648 20.544C9.99467 20.544 11.808 19.904 13.088 18.624C14.368 17.344 15.008 15.5413 15.008 13.216C15.008 10.8907 14.368 9.07733 13.088 7.776C11.808 6.45333 9.99467 5.792 7.648 5.792H4.48V20.544H7.648Z" fill="#151515"/>
<path d="M27.4175 5.632V11.232H34.9375V14.784H27.4175V20.704H35.8975V24.352H22.9375V1.984H35.8975V5.632H27.4175Z" fill="#151515"/>
<path d="M44.4487 5.632V11.232H51.9688V14.784H44.4487V20.704H52.9287V24.352H39.9688V1.984H52.9287V5.632H44.4487Z" fill="#151515"/>
<path d="M73.288 8.928C73.288 10.1227 73 11.2427 72.424 12.288C71.8693 13.3333 70.984 14.176 69.768 14.816C68.5733 15.456 67.0587 15.776 65.224 15.776H61.48V24.352H57V2.016H65.224C66.952 2.016 68.424 2.31467 69.64 2.912C70.856 3.50933 71.7627 4.33067 72.36 5.376C72.9787 6.42133 73.288 7.60533 73.288 8.928ZM65.032 12.16C66.2693 12.16 67.1867 11.8827 67.784 11.328C68.3813 10.752 68.68 9.952 68.68 8.928C68.68 6.752 67.464 5.664 65.032 5.664H61.48V12.16H65.032Z" fill="#151515"/>
<path d="M75.6367 15.52C75.6367 13.728 75.9994 12.16 76.7247 10.816C77.4501 9.45067 78.4421 8.39467 79.7008 7.648C80.9808 6.90133 82.4101 6.528 83.9887 6.528C85.3541 6.528 86.6234 6.848 87.7968 7.488C88.9701 8.10667 89.8661 8.928 90.4847 9.952V0.672001H93.4287V24.352H90.4847V21.056C89.9087 22.1013 89.0554 22.9653 87.9248 23.648C86.7941 24.3093 85.4714 24.64 83.9567 24.64C82.3994 24.64 80.9808 24.256 79.7008 23.488C78.4421 22.72 77.4501 21.6427 76.7247 20.256C75.9994 18.8693 75.6367 17.2907 75.6367 15.52ZM90.4847 15.552C90.4847 14.2293 90.2181 13.0773 89.6848 12.096C89.1514 11.1147 88.4261 10.368 87.5088 9.856C86.6128 9.32267 85.6208 9.056 84.5328 9.056C83.4448 9.056 82.4527 9.312 81.5567 9.824C80.6607 10.336 79.9461 11.0827 79.4128 12.064C78.8794 13.0453 78.6127 14.1973 78.6127 15.52C78.6127 16.864 78.8794 18.0373 79.4128 19.04C79.9461 20.0213 80.6607 20.7787 81.5567 21.312C82.4527 21.824 83.4448 22.08 84.5328 22.08C85.6208 22.08 86.6128 21.824 87.5088 21.312C88.4261 20.7787 89.1514 20.0213 89.6848 19.04C90.2181 18.0373 90.4847 16.8747 90.4847 15.552Z" fill="#151515"/>
<path d="M99.8538 3.968C99.2991 3.968 98.8297 3.776 98.4457 3.392C98.0617 3.008 97.8698 2.53867 97.8698 1.984C97.8698 1.42933 98.0617 0.96 98.4457 0.576C98.8297 0.192 99.2991 0 99.8538 0C100.387 0 100.835 0.192 101.198 0.576C101.582 0.96 101.774 1.42933 101.774 1.984C101.774 2.53867 101.582 3.008 101.198 3.392C100.835 3.776 100.387 3.968 99.8538 3.968ZM101.262 6.816V24.352H98.3497V6.816H101.262Z" fill="#151515"/>
<path d="M112.753 21.664L118.193 6.816H121.297L114.417 24.352H111.025L104.145 6.816H107.281L112.753 21.664Z" fill="#151515"/>
<path d="M140.162 14.912C140.162 15.4667 140.13 16.0533 140.066 16.672H126.05C126.157 18.4 126.744 19.7547 127.81 20.736C128.898 21.696 130.21 22.176 131.746 22.176C133.005 22.176 134.05 21.888 134.882 21.312C135.736 20.7147 136.333 19.9253 136.674 18.944H139.81C139.341 20.6293 138.402 22.0053 136.994 23.072C135.586 24.1173 133.837 24.64 131.746 24.64C130.082 24.64 128.589 24.2667 127.266 23.52C125.965 22.7733 124.941 21.7173 124.194 20.352C123.448 18.9653 123.074 17.3653 123.074 15.552C123.074 13.7387 123.437 12.1493 124.162 10.784C124.888 9.41867 125.901 8.37333 127.202 7.648C128.525 6.90133 130.04 6.528 131.746 6.528C133.41 6.528 134.882 6.89067 136.162 7.616C137.442 8.34133 138.424 9.344 139.106 10.624C139.81 11.8827 140.162 13.312 140.162 14.912ZM137.154 14.304C137.154 13.1947 136.909 12.2453 136.418 11.456C135.928 10.6453 135.256 10.0373 134.402 9.632C133.57 9.20533 132.642 8.992 131.618 8.992C130.146 8.992 128.888 9.46133 127.842 10.4C126.818 11.3387 126.232 12.64 126.082 14.304H137.154Z" fill="#151515"/>
<path d="M145.734 24.576C144.923 24.576 144.251 24.3307 143.718 23.84C143.206 23.328 142.95 22.6987 142.95 21.952C142.95 21.2053 143.206 20.5867 143.718 20.096C144.251 19.584 144.923 19.328 145.734 19.328C146.523 19.328 147.174 19.584 147.686 20.096C148.198 20.5867 148.454 21.2053 148.454 21.952C148.454 22.6987 148.198 23.328 147.686 23.84C147.174 24.3307 146.523 24.576 145.734 24.576Z" fill="#151515"/>
</svg>
