<svg width="25" height="24" viewBox="0 0 25 24" fill="none" xmlns="http://www.w3.org/2000/svg">
<path d="M23.4458 0H1.5038C0.976123 0 0.549805 0.429 0.549805 0.96V23.04C0.549805 23.571 0.976123 24 1.5038 24H23.4458C23.9735 24 24.3998 23.571 24.3998 23.04V0.96C24.3998 0.429 23.9735 0 23.4458 0ZM12.5076 12.183L6.7836 17.013C6.62857 17.145 6.39305 17.034 6.39305 16.83V14.949C6.39305 14.88 6.42585 14.811 6.47951 14.766L9.75292 12L6.47951 9.234C6.45211 9.21222 6.43006 9.18439 6.41506 9.15265C6.40007 9.12092 6.39254 9.08613 6.39305 9.051V7.17C6.39305 6.966 6.62857 6.855 6.7836 6.987L12.5076 11.814C12.6239 11.91 12.6239 12.087 12.5076 12.183ZM18.5566 16.83C18.5566 16.962 18.4552 17.07 18.333 17.07H12.8176C12.6954 17.07 12.5941 16.962 12.5941 16.83V15.39C12.5941 15.258 12.6954 15.15 12.8176 15.15H18.333C18.4552 15.15 18.5566 15.258 18.5566 15.39V16.83Z" fill="white"/>
</svg>
